<mxfile host="app.diagrams.net" modified="2021-03-23T06:00:46.258Z" agent="5.0 (Windows NT 10.0; Win64; x64) AppleWebKit/537.36 (KHTML, like Gecko) Chrome/89.0.4389.82 Safari/537.36" etag="MGQG4uf6MTVSNrBie5N_" version="14.4.9" type="github">
  <diagram id="g_JCi4dy_4XTtYp1OMq6" name="Page-1">
    <mxGraphModel dx="868" dy="450" grid="1" gridSize="10" guides="1" tooltips="1" connect="1" arrows="1" fold="1" page="1" pageScale="1" pageWidth="827" pageHeight="1169" math="0" shadow="0">
      <root>
        <mxCell id="0" />
        <mxCell id="1" parent="0" />
        <mxCell id="1rMzxDTMS5Z_vIxv3XcB-10" style="edgeStyle=orthogonalEdgeStyle;rounded=0;orthogonalLoop=1;jettySize=auto;html=1;exitX=0.5;exitY=1;exitDx=0;exitDy=0;entryX=0.5;entryY=0;entryDx=0;entryDy=0;" parent="1" source="1rMzxDTMS5Z_vIxv3XcB-2" edge="1">
          <mxGeometry relative="1" as="geometry">
            <mxPoint x="420" y="410" as="targetPoint" />
          </mxGeometry>
        </mxCell>
        <mxCell id="1rMzxDTMS5Z_vIxv3XcB-2" value="начало" style="rounded=1;whiteSpace=wrap;html=1;" parent="1" vertex="1">
          <mxGeometry x="360" y="320" width="120" height="60" as="geometry" />
        </mxCell>
        <mxCell id="1rMzxDTMS5Z_vIxv3XcB-11" style="edgeStyle=orthogonalEdgeStyle;rounded=0;orthogonalLoop=1;jettySize=auto;html=1;exitX=0.5;exitY=1;exitDx=0;exitDy=0;entryX=0.5;entryY=0;entryDx=0;entryDy=0;" parent="1" target="1rMzxDTMS5Z_vIxv3XcB-6" edge="1">
          <mxGeometry relative="1" as="geometry">
            <mxPoint x="420" y="470" as="sourcePoint" />
          </mxGeometry>
        </mxCell>
        <mxCell id="1rMzxDTMS5Z_vIxv3XcB-12" style="edgeStyle=orthogonalEdgeStyle;rounded=0;orthogonalLoop=1;jettySize=auto;html=1;exitX=0;exitY=0.5;exitDx=0;exitDy=0;" parent="1" source="1rMzxDTMS5Z_vIxv3XcB-6" edge="1">
          <mxGeometry relative="1" as="geometry">
            <mxPoint x="260" y="544.5" as="targetPoint" />
          </mxGeometry>
        </mxCell>
        <mxCell id="1rMzxDTMS5Z_vIxv3XcB-14" style="edgeStyle=orthogonalEdgeStyle;rounded=0;orthogonalLoop=1;jettySize=auto;html=1;exitX=1;exitY=0.5;exitDx=0;exitDy=0;entryX=0;entryY=0.5;entryDx=0;entryDy=0;" parent="1" source="1rMzxDTMS5Z_vIxv3XcB-6" edge="1">
          <mxGeometry relative="1" as="geometry">
            <mxPoint x="580" y="544.5" as="targetPoint" />
          </mxGeometry>
        </mxCell>
        <mxCell id="1rMzxDTMS5Z_vIxv3XcB-6" value="if (x3==TRUE)" style="rhombus;whiteSpace=wrap;html=1;" parent="1" vertex="1">
          <mxGeometry x="330" y="504.5" width="180" height="80" as="geometry" />
        </mxCell>
        <mxCell id="1rMzxDTMS5Z_vIxv3XcB-13" value="нет" style="text;html=1;align=center;verticalAlign=middle;resizable=0;points=[];autosize=1;" parent="1" vertex="1">
          <mxGeometry x="285" y="520" width="30" height="20" as="geometry" />
        </mxCell>
        <mxCell id="1rMzxDTMS5Z_vIxv3XcB-15" value="есть" style="text;html=1;align=center;verticalAlign=middle;resizable=0;points=[];autosize=1;" parent="1" vertex="1">
          <mxGeometry x="520" y="520" width="40" height="20" as="geometry" />
        </mxCell>
        <mxCell id="1rMzxDTMS5Z_vIxv3XcB-17" value="&lt;span style=&quot;background-color: rgb(255 , 255 , 255)&quot;&gt;&lt;font face=&quot;helvetica&quot;&gt;x &amp;lt;- c(&quot;mama mila ramu&quot;)&lt;br&gt;&lt;/font&gt;&lt;div&gt;x2 &amp;lt;- strsplit(x, &quot; &quot;)&lt;/div&gt;&lt;div&gt;pattern &amp;lt;- &#39;mama&#39;&lt;/div&gt;&lt;div&gt;x3 &amp;lt;- grep(pattern, x2)&lt;/div&gt;&lt;/span&gt;" style="rounded=0;whiteSpace=wrap;html=1;" parent="1" vertex="1">
          <mxGeometry x="335" y="410" width="170" height="60" as="geometry" />
        </mxCell>
        <mxCell id="1rMzxDTMS5Z_vIxv3XcB-22" style="edgeStyle=orthogonalEdgeStyle;rounded=0;orthogonalLoop=1;jettySize=auto;html=1;entryX=0.5;entryY=0;entryDx=0;entryDy=0;" parent="1" source="1rMzxDTMS5Z_vIxv3XcB-18" target="1rMzxDTMS5Z_vIxv3XcB-20" edge="1">
          <mxGeometry relative="1" as="geometry" />
        </mxCell>
        <mxCell id="1rMzxDTMS5Z_vIxv3XcB-18" value="Вывести&lt;br&gt;нет слово в предложении" style="shape=parallelogram;perimeter=parallelogramPerimeter;whiteSpace=wrap;html=1;fixedSize=1;" parent="1" vertex="1">
          <mxGeometry x="150" y="514.5" width="120" height="60" as="geometry" />
        </mxCell>
        <mxCell id="1rMzxDTMS5Z_vIxv3XcB-23" style="edgeStyle=orthogonalEdgeStyle;rounded=0;orthogonalLoop=1;jettySize=auto;html=1;entryX=0.5;entryY=0;entryDx=0;entryDy=0;" parent="1" source="1rMzxDTMS5Z_vIxv3XcB-19" target="1rMzxDTMS5Z_vIxv3XcB-21" edge="1">
          <mxGeometry relative="1" as="geometry" />
        </mxCell>
        <mxCell id="1rMzxDTMS5Z_vIxv3XcB-19" value="Вывести&lt;br&gt;есть слово в предложении" style="shape=parallelogram;perimeter=parallelogramPerimeter;whiteSpace=wrap;html=1;fixedSize=1;" parent="1" vertex="1">
          <mxGeometry x="570" y="514.5" width="120" height="60" as="geometry" />
        </mxCell>
        <mxCell id="1rMzxDTMS5Z_vIxv3XcB-20" value="Остановка" style="ellipse;whiteSpace=wrap;html=1;" parent="1" vertex="1">
          <mxGeometry x="130" y="600" width="160" height="50" as="geometry" />
        </mxCell>
        <mxCell id="1rMzxDTMS5Z_vIxv3XcB-21" value="&lt;span&gt;Остановка&lt;/span&gt;" style="ellipse;whiteSpace=wrap;html=1;" parent="1" vertex="1">
          <mxGeometry x="550" y="600" width="160" height="50" as="geometry" />
        </mxCell>
      </root>
    </mxGraphModel>
  </diagram>
</mxfile>
